<svg xmlns="http://www.w3.org/2000/svg" viewBox="0 0 100 100" fill="none">
  <!-- Lotus flower petals - bottom layer -->
  <path d="M50 75 Q20 60 15 35 Q25 50 50 55 Q75 50 85 35 Q80 60 50 75" fill="white" opacity="0.9"/>
  
  <!-- Lotus flower petals - middle layer -->
  <path d="M50 60 Q30 45 28 25 Q38 40 50 45 Q62 40 72 25 Q70 45 50 60" fill="white" opacity="0.95"/>
  
  <!-- Lotus flower petals - top layer -->
  <path d="M50 45 Q38 30 36 15 Q44 28 50 33 Q56 28 64 15 Q62 30 50 45" fill="white"/>
  
  <!-- Lotus center -->
  <circle cx="50" cy="28" r="6" fill="white" opacity="0.8"/>
  
  <!-- Stem -->
  <path d="M50 75 Q50 85 50 95" stroke="white" stroke-width="4" stroke-linecap="round" opacity="0.7"/>
</svg>
